<?xml version="1.0" encoding="UTF-8" standalone="no"?>
<svg
   xmlns:dc="http://purl.org/dc/elements/1.1/"
   xmlns:cc="http://creativecommons.org/ns#"
   xmlns:rdf="http://www.w3.org/1999/02/22-rdf-syntax-ns#"
   xmlns:svg="http://www.w3.org/2000/svg"
   xmlns="http://www.w3.org/2000/svg"
   xmlns:sodipodi="http://sodipodi.sourceforge.net/DTD/sodipodi-0.dtd"
   xmlns:inkscape="http://www.inkscape.org/namespaces/inkscape"
   width="64.029182mm"
   height="191.02914mm"
   viewBox="0 0 64.029182 191.02914"
   version="1.1"
   id="svg1996"
   inkscape:version="1.0.1 (3bc2e813f5, 2020-09-07)"
   sodipodi:docname="uno-wildcards.svg"
   preserveAspectRatio="none">
  <defs
     id="defs1990" />
  <sodipodi:namedview
     id="base"
     pagecolor="#ffffff"
     bordercolor="#666666"
     borderopacity="1.0"
     inkscape:pageopacity="0.0"
     inkscape:pageshadow="2"
     inkscape:zoom="0.35"
     inkscape:cx="743.57139"
     inkscape:cy="571.60692"
     inkscape:document-units="mm"
     inkscape:current-layer="layer1"
     inkscape:document-rotation="0"
     showgrid="false"
     inkscape:window-width="1685"
     inkscape:window-height="968"
     inkscape:window-x="208"
     inkscape:window-y="263"
     inkscape:window-maximized="0" />
  <metadata
     id="metadata1993">
    <rdf:RDF>
      <cc:Work
         rdf:about="">
        <dc:format>image/svg+xml</dc:format>
        <dc:type
           rdf:resource="http://purl.org/dc/dcmitype/StillImage" />
        <dc:title></dc:title>
      </cc:Work>
    </rdf:RDF>
  </metadata>
  <g
     inkscape:label="Calque 1"
     inkscape:groupmode="layer"
     id="layer1"
     transform="translate(32.430349,311.37666)">
    <g
       transform="matrix(1.0583333,0,0,1.0583333,-857.66574,-948.61205)"
       id="g6694">
      <rect
         width="60"
         height="90"
         rx="10"
         ry="10"
         x="780"
         y="692.36218"
         id="rect2987-8-5-81-2-1"
         style="fill:#ffffff;fill-opacity:1;fill-rule:evenodd;stroke:#000000;stroke-width:0.5;stroke-miterlimit:4;stroke-dasharray:none" />
      <rect
         width="50"
         height="80"
         rx="5"
         ry="5"
         x="785"
         y="697.36218"
         id="rect3757-26-33-5-9-9"
         style="fill:#000000;fill-opacity:1;fill-rule:evenodd;stroke:none" />
      <path
         d="m 825,712.36218 c -22.09139,0 -40,17.90861 -40,40 0,5.52285 4.47715,10 10,10 22.09139,0 40,-17.90861 40,-40 0,-5.52285 -4.47715,-10 -10,-10 z"
         id="path3773-0-4-8-4-60-3-86-5-6"
         style="fill:#ffffff;fill-opacity:1;fill-rule:evenodd;stroke:none" />
      <path
         d="m 799.9,699.86217 -4.9,10 v 2.50001 h 6 v 2.50001 h 2.5 v -2.50001 h 1.5 v -2.50001 h -1.5 v -4.99999 H 801 v 4.99999 h -3.4 l 4.9,-10 z"
         id="rect3980-7-6-2-9-5-60-5-3-1-5"
         style="fill:#ffffff;fill-opacity:1;stroke:none" />
      <path
         d="m 788.5,704.86216 v 2.50002 H 786 v 2.49996 h 2.5 v 2.50002 h 2.5 v -2.50002 h 2.5 v -2.49996 H 791 v -2.50002 z"
         id="rect5649-4"
         style="fill:#ffffff;fill-opacity:1;fill-rule:evenodd;stroke:none" />
      <path
         d="m 820.1,774.86219 4.9,-10 v -2.50001 h -6 v -2.50001 h -2.5 v 2.50001 H 815 v 2.50001 h 1.5 v 4.99999 h 2.5 v -4.99999 h 3.4 l -4.9,10 z"
         id="rect3980-7-6-2-9-5-60-5-3-1-8-9"
         style="fill:#ffffff;fill-opacity:1;stroke:none" />
      <path
         d="m 831.5,769.8622 v -2.50002 h 2.5 v -2.49996 h -2.5 V 762.3622 H 829 v 2.50002 h -2.5 v 2.49996 h 2.5 v 2.50002 z"
         id="rect5649-1-1"
         style="fill:#ffffff;fill-opacity:1;fill-rule:evenodd;stroke:none" />
      <g
         transform="translate(119.99999,429.99998)"
         id="g6111-38-2">
        <rect
           width="15"
           height="23.40037"
           rx="2.5"
           ry="2.3477995"
           x="762.46088"
           y="306.66135"
           transform="matrix(1,0,-0.27472185,0.96152374,0,0)"
           id="rect6095-2-9"
           style="fill:#ffffff;fill-opacity:1;fill-rule:evenodd;stroke:#000000;stroke-width:0.509906;stroke-miterlimit:4;stroke-dasharray:none" />
        <rect
           width="10"
           height="18.200279"
           rx="2.4999874"
           ry="2.3477879"
           x="764.96088"
           y="309.26141"
           transform="matrix(1,0,-0.27472185,0.96152374,0,0)"
           id="rect6097-5-7"
           style="fill:#ff5555;fill-opacity:1;fill-rule:evenodd;stroke:none" />
      </g>
      <g
         transform="translate(129.99998,422.49998)"
         id="g6111-62-2-1">
        <rect
           width="15"
           height="23.40037"
           rx="2.5"
           ry="2.3477995"
           x="762.46088"
           y="306.66135"
           transform="matrix(1,0,-0.27472185,0.96152374,0,0)"
           id="rect6095-14-0-3"
           style="fill:#ffffff;fill-opacity:1;fill-rule:evenodd;stroke:#000000;stroke-width:0.509906;stroke-miterlimit:4;stroke-dasharray:none" />
        <rect
           width="10"
           height="18.200279"
           rx="2.4999874"
           ry="2.3477879"
           x="764.96088"
           y="309.26141"
           transform="matrix(1,0,-0.27472185,0.96152374,0,0)"
           id="rect6097-6-3-2"
           style="fill:#5555ff;fill-opacity:1;fill-rule:evenodd;stroke:none" />
      </g>
      <g
         transform="translate(127.49999,437.49998)"
         id="g6111-3-5">
        <rect
           width="15"
           height="23.40037"
           rx="2.5"
           ry="2.3477995"
           x="762.46088"
           y="306.66135"
           transform="matrix(1,0,-0.27472185,0.96152374,0,0)"
           id="rect6095-0-3"
           style="fill:#ffffff;fill-opacity:1;fill-rule:evenodd;stroke:#000000;stroke-width:0.509906;stroke-miterlimit:4;stroke-dasharray:none" />
        <rect
           width="10"
           height="18.200279"
           rx="2.4999874"
           ry="2.3477879"
           x="764.96088"
           y="309.26141"
           transform="matrix(1,0,-0.27472185,0.96152374,0,0)"
           id="rect6097-7-4"
           style="fill:#ffaa00;fill-opacity:1;fill-rule:evenodd;stroke:none" />
      </g>
      <g
         transform="translate(137.49998,429.99999)"
         id="g6111-62-7-3">
        <rect
           width="15"
           height="23.40037"
           rx="2.5"
           ry="2.3477995"
           x="762.46088"
           y="306.66135"
           transform="matrix(1,0,-0.27472185,0.96152374,0,0)"
           id="rect6095-14-8-2"
           style="fill:#ffffff;fill-opacity:1;fill-rule:evenodd;stroke:#000000;stroke-width:0.509906;stroke-miterlimit:4;stroke-dasharray:none" />
        <rect
           width="10"
           height="18.200279"
           rx="2.4999874"
           ry="2.3477879"
           x="764.96088"
           y="309.26141"
           transform="matrix(1,0,-0.27472185,0.96152374,0,0)"
           id="rect6097-6-7-1"
           style="fill:#55aa55;fill-opacity:1;fill-rule:evenodd;stroke:none" />
      </g>
    </g>
    <g
       transform="matrix(0.26458333,0,0,0.26458333,-524.29074,-113.29959)"
       id="g9888-0-5-0">
      <rect
         width="240"
         height="360"
         rx="40"
         ry="40"
         x="1860"
         y="-747.63776"
         id="rect2987-8-5-81-2-4-9-82"
         style="fill:#ffffff;fill-opacity:1;fill-rule:evenodd;stroke:#000000;stroke-width:2;stroke-miterlimit:4;stroke-dasharray:none" />
      <rect
         width="200"
         height="320"
         rx="20"
         ry="20"
         x="1880"
         y="-727.63776"
         id="rect3757-26-33-5-9-0-0-7"
         style="fill:#000000;fill-opacity:1;fill-rule:evenodd;stroke:none" />
      <path
         d="m 2040,-667.63782 c -88.3656,0 -160,71.63444 -160,160 0,22.0914 17.9086,40 40,40 88.3656,0 160,-71.63444 160,-160 0,-22.0914 -17.9086,-40 -40,-40 z"
         id="path3773-0-4-8-4-60-3-86-5-7-5-4"
         style="fill:#ffffff;fill-opacity:1;fill-rule:evenodd;stroke:none" />
      <path
         d="m 1891.75,-567.63782 c -7.5127,18.54188 -11.75,38.76336 -11.75,60 0,22.0914 17.9086,40 40,40 l 60,-100 z"
         id="path3773-0-4-8-8-7-9-0-9-1-07"
         style="fill:#ffaa00;fill-opacity:1;fill-rule:evenodd;stroke:none" />
      <path
         d="m 1980,-567.63782 -60,100 c 67.1289,0 124.5024,-41.38924 148.25,-100 z"
         id="path3773-0-4-8-8-5-6-5-0-08-2-6"
         style="fill:#00aa00;fill-opacity:1;fill-rule:evenodd;stroke:none" />
      <path
         d="m 2040,-667.63782 c -67.1289,0 -124.5024,41.38924 -148.25,100 H 1980 Z"
         id="path3773-0-4-8-8-1-4-3-1-0-0"
         style="fill:#ff5555;fill-opacity:1;fill-rule:evenodd;stroke:none" />
      <path
         d="m 2040,-667.63782 -60,100 h 88.25 c 7.5127,-18.54188 11.75,-38.76336 11.75,-60 0,-22.0914 -17.9086,-40 -40,-40 z"
         id="path3773-0-4-8-8-5-8-3-9-4-9-1"
         style="fill:#5555ff;fill-opacity:1;fill-rule:evenodd;stroke:none" />
      <path
         d="m 1892.9375,-692.63797 c -1.8782,4.63547 -2.9375,9.69084 -2.9375,15 0,5.52285 4.4772,10 10,10 l 15,-25 z"
         id="path3773-0-4-8-8-7-9-5-7-0-8-29"
         style="fill:#ffaa00;fill-opacity:1;fill-rule:evenodd;stroke:none" />
      <path
         d="m 1915,-692.63797 -15,25 c 16.7822,0 31.1256,-10.34731 37.0625,-25 z"
         id="path3773-0-4-8-8-5-6-5-08-9-79-9-3"
         style="fill:#00aa00;fill-opacity:1;fill-rule:evenodd;stroke:none" />
      <path
         d="m 1930,-717.63797 c -16.7822,0 -31.1256,10.34731 -37.0625,25 H 1915 Z"
         id="path3773-0-4-8-8-1-4-39-9-5-1-85"
         style="fill:#ff5555;fill-opacity:1;fill-rule:evenodd;stroke:none" />
      <path
         d="m 1930,-717.63797 -15,25 h 22.0625 c 1.8782,-4.63547 2.9375,-9.69084 2.9375,-15 0,-5.52285 -4.4772,-10 -10,-10 z"
         id="path3773-0-4-8-8-5-8-3-3-7-38-7-1"
         style="fill:#5555ff;fill-opacity:1;fill-rule:evenodd;stroke:none" />
      <path
         d="m 2022.9375,-442.63797 c -1.8782,4.63547 -2.9375,9.69084 -2.9375,15 0,5.52285 4.4772,10 10,10 l 15,-25 z"
         id="path3773-0-4-8-8-7-9-5-3-2-3-5"
         style="fill:#ffaa00;fill-opacity:1;fill-rule:evenodd;stroke:none" />
      <path
         d="m 2045,-442.63797 -15,25 c 16.7822,0 31.1256,-10.34731 37.0625,-25 z"
         id="path3773-0-4-8-8-5-6-5-08-5-3-3-66"
         style="fill:#00aa00;fill-opacity:1;fill-rule:evenodd;stroke:none" />
      <path
         d="m 2060,-467.63797 c -16.7822,0 -31.1256,10.34731 -37.0625,25 H 2045 Z"
         id="path3773-0-4-8-8-1-4-39-7-2-0-8"
         style="fill:#ff5555;fill-opacity:1;fill-rule:evenodd;stroke:none" />
      <path
         d="m 2060,-467.63797 -15,25 h 22.0625 c 1.8782,-4.63547 2.9375,-9.69084 2.9375,-15 0,-5.52285 -4.4772,-10 -10,-10 z"
         id="path3773-0-4-8-8-5-8-3-3-6-1-7-8"
         style="fill:#5555ff;fill-opacity:1;fill-rule:evenodd;stroke:none" />
      <path
         d="m 2040,-667.63787 c -67.1289,0 -124.5024,41.38924 -148.25,100 -7.5127,18.54188 -11.75,38.76336 -11.75,60 0,22.0914 17.9086,40 40,40 67.1289,0 124.5024,-41.38924 148.25,-100 7.5127,-18.54188 11.75,-38.76336 11.75,-60 0,-22.0914 -17.9086,-40 -40,-40 z"
         id="path3773-0-4-8-8-7-9-0-03-8-0-6-9"
         style="fill:none;stroke:#ffffff;stroke-width:4;stroke-miterlimit:4;stroke-dasharray:none" />
      <path
         d="m 1930,-717.63787 c -16.7822,0 -31.1256,10.34731 -37.0625,25 -1.8782,4.63547 -2.9375,9.69084 -2.9375,15 0,5.52285 4.4772,10 10,10 16.7822,0 31.1256,-10.34731 37.0625,-25 1.8782,-4.63547 2.9375,-9.69084 2.9375,-15 0,-5.52285 -4.4772,-10 -10,-10 z"
         id="path3773-0-4-8-8-7-9-0-03-8-9-4-6-8"
         style="fill:none;stroke:#ffffff;stroke-width:4;stroke-miterlimit:4;stroke-dasharray:none" />
      <path
         d="m 2060,-467.63787 c -16.7822,0 -31.1256,10.34731 -37.0625,25 -1.8782,4.63547 -2.9375,9.69084 -2.9375,15 0,5.52285 4.4772,10 10,10 16.7822,0 31.1256,-10.34731 37.0625,-25 1.8782,-4.63547 2.9375,-9.69084 2.9375,-15 0,-5.52285 -4.4772,-10 -10,-10 z"
         id="path3773-0-4-8-8-7-9-0-03-8-9-5-07-0-7"
         style="fill:none;stroke:#ffffff;stroke-width:4;stroke-miterlimit:4;stroke-dasharray:none" />
    </g>
  </g>
</svg>
